HIERARCHY
ROOT Hips
{
	OFFSET -14.64140 90.27770 -84.91600
	CHANNELS 6 Xposition Yposition Zposition Zrotation Xrotation Yrotation
	JOINT Spine
	{
		OFFSET 0.00000 13.20850 -1.60436
		CHANNELS 3 Zrotation Xrotation Yrotation
		JOINT Spine1
		{
			OFFSET 0.00000 8.61716 0.00000
			CHANNELS 3 Zrotation Xrotation Yrotation
			JOINT Spine2
			{
				OFFSET 0.00000 8.61717 0.00000
				CHANNELS 3 Zrotation Xrotation Yrotation
				JOINT Spine3
				{
					OFFSET 0.00000 8.61717 0.00000
					CHANNELS 3 Zrotation Xrotation Yrotation
					JOINT Neck
					{
						OFFSET 0.00000 11.07920 1.10792
						CHANNELS 3 Zrotation Xrotation Yrotation
						JOINT Neck1
						{
							OFFSET 0.00000 7.08032 0.00000
							CHANNELS 3 Zrotation Xrotation Yrotation
							JOINT Head
							{
								OFFSET 0.00000 7.08031 0.00000
								CHANNELS 3 Zrotation Xrotation Yrotation
								End site
								{
									OFFSET 0.00000 0.00000 0.00000
								}
							}
						}
					}
					JOINT RightShoulder
					{
						OFFSET -0.01000 7.91373 5.19711
						CHANNELS 3 Zrotation Xrotation Yrotation
						JOINT RightArm
						{
							OFFSET -18.41580 0.00000 0.00000
							CHANNELS 3 Zrotation Xrotation Yrotation
							JOINT RightForeArm
							{
								OFFSET -29.11090 0.00000 0.00000
								CHANNELS 3 Zrotation Xrotation Yrotation
								JOINT RightHand
								{
									OFFSET -24.65040 0.00000 0.00000
									CHANNELS 3 Zrotation Xrotation Yrotation
									JOINT RightHandThumb1
									{
										OFFSET -5.35114 -0.85590 3.97906
										CHANNELS 3 Zrotation Xrotation Yrotation
										JOINT RightHandThumb2
										{
											OFFSET -4.52789 0.00000 0.00000
											CHANNELS 3 Zrotation Xrotation Yrotation
											JOINT RightHandThumb3
											{
												OFFSET -2.46976 0.00000 0.00000
												CHANNELS 3 Zrotation Xrotation Yrotation
												End site
												{
													OFFSET 0.00000 0.00000 0.00000
												}
											}
										}
									}
									JOINT RightHandIndex1
									{
										OFFSET -14.26970 0.00000 2.88139
										CHANNELS 3 Zrotation Xrotation Yrotation
										JOINT RightHandIndex2
										{
											OFFSET -5.48836 0.00000 0.00000
											CHANNELS 3 Zrotation Xrotation Yrotation
											JOINT RightHandIndex3
											{
												OFFSET -3.01859 0.00000 0.00000
												CHANNELS 3 Zrotation Xrotation Yrotation
												End site
												{
													OFFSET 0.00000 0.00000 0.00000
												}
											}
										}
									}
									JOINT RightHandMiddle1
									{
										OFFSET -14.26970 0.00000 -0.09147
										CHANNELS 3 Zrotation Xrotation Yrotation
										JOINT RightHandMiddle2
										{
											OFFSET -6.17441 0.00000 0.00000
											CHANNELS 3 Zrotation Xrotation Yrotation
											JOINT RightHandMiddle3
											{
												OFFSET -3.56743 0.00000 0.00000
												CHANNELS 3 Zrotation Xrotation Yrotation
												End site
												{
													OFFSET 0.00000 0.00000 0.00000
												}
											}
										}
									}
									JOINT RightHandRing1
									{
										OFFSET -12.69180 0.00000 -3.06433
										CHANNELS 3 Zrotation Xrotation Yrotation
										JOINT RightHandRing2
										{
											OFFSET -5.62556 0.00000 0.00000
											CHANNELS 3 Zrotation Xrotation Yrotation
											JOINT RightHandRing3
											{
												OFFSET -3.56744 0.00000 0.00000
												CHANNELS 3 Zrotation Xrotation Yrotation
												End site
												{
													OFFSET 0.00000 0.00000 0.00000
												}
											}
										}
									}
									JOINT RightHandPinky1
									{
										OFFSET -11.11390 0.00000 -6.03719
										CHANNELS 3 Zrotation Xrotation Yrotation
										JOINT RightHandPinky2
										{
											OFFSET -4.52789 0.00000 0.00000
											CHANNELS 3 Zrotation Xrotation Yrotation
											JOINT RightHandPinky3
											{
												OFFSET -2.46976 0.00000 0.00000
												CHANNELS 3 Zrotation Xrotation Yrotation
												End site
												{
													OFFSET 0.00000 0.00000 0.00000
												}
											}
										}
									}
								}
							}
						}
					}
					JOINT LeftShoulder
					{
						OFFSET 0.01000 7.91373 5.19711
						CHANNELS 3 Zrotation Xrotation Yrotation
						JOINT LeftArm
						{
							OFFSET 18.41580 0.00000 0.00000
							CHANNELS 3 Zrotation Xrotation Yrotation
							JOINT LeftForeArm
							{
								OFFSET 29.11090 0.00000 0.00000
								CHANNELS 3 Zrotation Xrotation Yrotation
								JOINT LeftHand
								{
									OFFSET 24.65040 0.00000 0.00000
									CHANNELS 3 Zrotation Xrotation Yrotation
									JOINT LeftHandThumb1
									{
										OFFSET 5.35114 -0.85590 3.97906
										CHANNELS 3 Zrotation Xrotation Yrotation
										JOINT LeftHandThumb2
										{
											OFFSET 4.52789 0.00000 0.00000
											CHANNELS 3 Zrotation Xrotation Yrotation
											JOINT LeftHandThumb3
											{
												OFFSET 2.46977 0.00000 0.00000
												CHANNELS 3 Zrotation Xrotation Yrotation
												End site
												{
													OFFSET 0.00000 0.00000 0.00000
												}
											}
										}
									}
									JOINT LeftHandIndex1
									{
										OFFSET 14.26970 0.00000 2.88139
										CHANNELS 3 Zrotation Xrotation Yrotation
										JOINT LeftHandIndex2
										{
											OFFSET 5.48836 0.00000 0.00000
											CHANNELS 3 Zrotation Xrotation Yrotation
											JOINT LeftHandIndex3
											{
												OFFSET 3.01859 0.00000 0.00000
												CHANNELS 3 Zrotation Xrotation Yrotation
												End site
												{
													OFFSET 0.00000 0.00000 0.00000
												}
											}
										}
									}
									JOINT LeftHandMiddle1
									{
										OFFSET 14.26970 0.00000 -0.09147
										CHANNELS 3 Zrotation Xrotation Yrotation
										JOINT LeftHandMiddle2
										{
											OFFSET 6.17440 0.00000 0.00000
											CHANNELS 3 Zrotation Xrotation Yrotation
											JOINT LeftHandMiddle3
											{
												OFFSET 3.56744 0.00000 0.00000
												CHANNELS 3 Zrotation Xrotation Yrotation
												End site
												{
													OFFSET 0.00000 0.00000 0.00000
												}
											}
										}
									}
									JOINT LeftHandRing1
									{
										OFFSET 12.69180 0.00000 -3.06433
										CHANNELS 3 Zrotation Xrotation Yrotation
										JOINT LeftHandRing2
										{
											OFFSET 5.62556 0.00000 0.00000
											CHANNELS 3 Zrotation Xrotation Yrotation
											JOINT LeftHandRing3
											{
												OFFSET 3.56744 0.00000 0.00000
												CHANNELS 3 Zrotation Xrotation Yrotation
												End site
												{
													OFFSET 0.00000 0.00000 0.00000
												}
											}
										}
									}
									JOINT LeftHandPinky1
									{
										OFFSET 11.11390 0.00000 -6.03719
										CHANNELS 3 Zrotation Xrotation Yrotation
										JOINT LeftHandPinky2
										{
											OFFSET 4.52789 0.00000 0.00000
											CHANNELS 3 Zrotation Xrotation Yrotation
											JOINT LeftHandPinky3
											{
												OFFSET 2.46976 0.00000 0.00000
												CHANNELS 3 Zrotation Xrotation Yrotation
												End site
												{
													OFFSET 0.00000 0.00000 0.00000
												}
											}
										}
									}
								}
							}
						}
					}
					JOINT pCube4
					{
						OFFSET 0.00000 10.91090 1.10792
						CHANNELS 3 Zrotation Xrotation Yrotation
						End site
						{
							OFFSET 0.00000 0.00000 0.00000
						}
					}
				}
			}
		}
	}
	JOINT RightUpLeg
	{
		OFFSET -9.98441 0.00000 0.00000
		CHANNELS 3 Zrotation Xrotation Yrotation
		JOINT RightLeg
		{
			OFFSET 0.00000 -42.11790 0.00000
			CHANNELS 3 Zrotation Xrotation Yrotation
			JOINT RightFoot
			{
				OFFSET 0.00000 -45.00020 -0.00001
				CHANNELS 3 Zrotation Xrotation Yrotation
				JOINT RightForeFoot
				{
					OFFSET 0.00000 -3.74820 0.00000
					CHANNELS 3 Zrotation Xrotation Yrotation
					JOINT RightToeBase
					{
						OFFSET 0.00000 0.06325 14.43120
						CHANNELS 3 Zrotation Xrotation Yrotation
						End site
						{
							OFFSET 0.00000 0.00000 0.00000
						}
					}
				}
			}
		}
	}
	JOINT LeftUpLeg
	{
		OFFSET 9.98441 0.00000 0.00000
		CHANNELS 3 Zrotation Xrotation Yrotation
		JOINT LeftLeg
		{
			OFFSET 0.00000 -42.11800 0.00000
			CHANNELS 3 Zrotation Xrotation Yrotation
			JOINT LeftFoot
			{
				OFFSET 0.00000 -45.00070 0.00000
				CHANNELS 3 Zrotation Xrotation Yrotation
				JOINT LeftForeFoot
				{
					OFFSET 0.00000 -3.74824 0.00000
					CHANNELS 3 Zrotation Xrotation Yrotation
					JOINT LeftToeBase
					{
						OFFSET 0.00000 0.06325 14.43110
						CHANNELS 3 Zrotation Xrotation Yrotation
						End site
						{
							OFFSET 0.00000 0.00000 0.00000
						}
					}
				}
			}
		}
	}
}
MOTION
Frames: 4
Frame Time: 0.050000
-0.03023659042339752 -0.04211069612574761 0.033506398938887544 -0.03957502841289273 -0.013996855290825463 0.004134160567675959 5.106804865697714 6.688784467379656 -1.876939761394571 -1.061099057870557 4.207078217344957 0.4582125761936853 -0.6197096476596498 -0.5216851288427038 0.9945080172932961 -0.06818818384686053 0.1035480060549159 -0.2207454293448558 -0.4271582091284311 14.079556532282986 -1.3643339080244354 -0.32058113935124677 -1.8373570254893763 -4.056535134196628 0.2589090423197333 -19.720188403012205 -0.3215447448211028 -12.721452636752622 3.944966476873275 -17.414776214613045 77.34337744416209 -6.551154008054705 15.26864183400605 10.185659208020242 -5.043442079524442 70.71827352047174 2.1012811287321407 0.08916411568978537 0.12334005764038942 4.494670774000997 -0.12625655816220904 -1.6394110146808185 0.017238766953956444 -0.013977618410274641 -56.23708524634085 0.02738296418679845 -0.023281016258643594 -56.27050692827565 -38.76973676348404 -0.013016204043312732 -0.04874274473156112 -0.01990200824879154 0.00242295542903381 0.04114017704808598 -0.04515330494480199 0.0034705975275363247 -0.017332574148314957 -36.66773502438355 0.044383951874556626 0.03085821209405411 -0.04221111434082306 -0.03488219803416049 0.018231993780824525 0.04529866550229385 0.014427448515165408 0.020330368979209403 -19.770848665774196 0.012209288836998837 -0.03293991906293911 0.00430748291332892 0.010702610135119804 -0.025813628272530743 -0.023596128300205268 0.001781561981766168 -0.002264458852469199 24.024796135278134 0.03958194481636588 0.027461667636596163 28.908137588889222 0.03414247624685177 -0.00981214704031977 28.816859530639586 -0.023731690737760047 0.030837071432225346 12.112188976842484 2.60620984968239 14.900632990279918 -71.90797943602207 7.583129659809455 -20.735023401498793 -3.908626264668887 -7.330125066383308 -61.97562968363575 -4.5360786486389735 2.4673847054338163 -3.6358340093897348 -0.4459252731174073 0.07079831174892827 -8.117325546191703 -0.02251437521318758 0.049658156509828 44.611073185566084 0.025435726753113938 -0.0023298540015768356 44.55851455449948 12.508572511707959 0.02875189064640943 0.01089209584778326 -0.023766683288953386 0.01222960223650804 0.010015776747492114 0.011178865517109803 -0.04790919803604083 0.0476127849378459 11.144777548628639 0.03916222298142794 0.005969473855104536 0.01804058282859545 0.018356820385832466 0.004031698486434232 -0.015403363176136851 -0.0021182015407246093 -0.031115576490005816 4.785336945859852 -0.04958882010556545 -0.021171027409855162 -0.0040168469991653495 0.020357193307303297 0.021225445888039395 -0.0006043975375460364 0.014502337966826009 -0.03444190463733889 -5.582286911368709 0.03865451647384114 0.020061516062503743 -6.751793960052408 -0.0007334375959007378 -0.048880219106050775 -6.729265957735394 0.03790608988010221 0.015761576019048155 -0.04819064644996002 -0.004486418066323834 -0.005455213079021539 8.067592971825242 3.479281997857022 -19.219278074523512 0.039190984684397016 10.372302105117063 0.0020872375142734056 -5.640407972317752 -15.694334877190826 3.1923173397690947 0.03504419969351021 0.029713822975839018 -0.0038745761656254693 0.02976564189633412 4.7212265385555 0.044872869269379924 12.451543651899428 -8.25884774832134 6.89810113585989 -0.0017136601661704 46.410212417439205 -0.008068605037982311 -4.302166557664437 -14.781947177282323 -3.832317142545349 0.036867940677715434 0.032568665344526265 -0.003296816691428734 0.019057878608110576 -10.73973680838795 -0.019939143601498774 
-0.0111150428620942 0.01924594001318727 0.03610793492290657 0.019764081154385875 0.032751945451293785 -0.0437721595831643 5.134831463581531 6.6656265026414205 -1.8869125796500221 -1.0398659170434106 4.209261293661163 0.43518330570112224 -0.6233254035704802 -0.5006485566916565 0.9592697126426005 0.05151729046097549 0.08317429217443335 -0.2797418841079919 -0.4225255893808709 14.032787558485834 -1.5612536267754027 -0.39654843762612624 -1.8260023867152348 -4.31954160167363 0.27235897861611963 -19.65324298376044 -0.3767245379265193 -12.398135145440046 3.8601031053474535 -17.560452980639695 76.0271295110341 -5.433813684476502 14.841767861056303 11.702353509308944 -4.875010939865192 71.67959946283025 2.774366796070727 0.09661789662937985 -0.06232309316505727 4.509534257856332 -0.12557846833736913 -1.6312037170238898 -0.020502929738988027 0.032722149259752996 -56.25507540534861 0.023338688623674782 -0.00022887304062204307 -56.25358333698148 -38.81903711120419 -0.0073348807460466665 0.04030907170233304 -0.03392576553295066 0.01738458726864273 -0.03342860284685728 -0.006360318359702598 0.02910734517335618 -0.007259632567920938 -36.72475356816212 -0.032944951423096724 -0.0357974883430541 -0.016295276121026873 0.010956785066294026 -0.024518930970547102 -0.03204389771789126 0.047653918456521394 -0.04856233713016137 -19.782121833459335 0.04304361182208127 0.02887831866830584 -0.044487739719745775 -0.0075329018672275466 0.0486612061044029 -0.0031682967575046364 -0.043072809029888345 -0.035350192489765245 24.022972082451698 0.03536497652400169 0.009048538821377052 28.86098028866853 -0.016714088622776693 0.012633026275253171 28.912583543880444 -0.04837954551152411 -0.013405746806743928 11.880047406417773 2.547554224091265 14.993501126972193 -71.09117660248779 7.913391037980593 -20.233442108908964 -5.1265002653606295 -7.105851378008291 -63.07506017373487 -5.230620674647662 2.2509224192748594 -3.4596643177514492 -0.46891814796042686 0.08298794430611679 -8.124658533293896 0.0314739456142269 0.026085919934683913 44.58507631839541 -0.038685501204546204 -0.01034401066679172 44.54383129806775 12.498579246771834 0.04095862534711854 0.003421126912868877 0.010890393855853536 -0.015342007182708629 0.010259570768977811 -0.02902675631145553 -0.04417130263270062 -0.016186171767103363 11.148748056868836 -0.025818008325569207 0.04088164534190743 -0.04041652756120984 -0.011525043034175972 0.014984089872385429 0.01740342811418476 -0.00846703445329444 -0.024714428990567236 4.804184769186916 0.022137917584167506 0.03549209668384656 0.03599635841523163 0.0036010671084032294 -0.04780692401880977 0.022890043597239604 0.012609927490039717 0.03616484832706307 -5.597894166892347 -0.021394902426700838 0.04178218156898381 -6.733518608513967 -0.010764006281465274 0.03437598122368116 -6.7685787019845725 -0.031456345782824364 -0.02350168674372371 -0.011499625629380266 -0.006271524955352357 -0.02189209689023028 8.058643466813368 3.4877593060812417 -19.18794788947187 -0.01861321819684268 10.369670647332358 0.0011744376147001974 -5.632949654348655 -15.637261687422084 3.1972701775448895 0.025724927464905203 0.010570864335292854 0.02372629871975489 -0.004664761972019655 4.739126297748985 0.029144573289925042 12.458398431576617 -8.223707378002587 6.834688250648456 -0.018976074916319124 46.37613184268318 -0.02456939760659777 -4.315822004512888 -14.723297841944877 -3.8014487255374068 0.030703131776980055 0.04591453923741407 -0.029197424295669995 0.03444060117923934 -10.759262083801811 0.009424361863174203 
0.00511806094141904 0.030686282740996215 -0.0015968192213813067 0.011033365164073008 0.02888665725502014 -0.02771353104236425 5.089312244074392 6.7290129720168235 -1.8838407272762228 -1.046639004677605 4.314266136118378 0.42848380548385945 -0.6567335942312015 -0.5194319098472887 1.0445215713901084 0.19085171706408524 0.07758878223350305 -0.26024834245818224 -0.34440369564621265 14.098591991917148 -1.7961119228471771 -0.381553399855658 -1.8678210040298353 -5.084390742126751 0.3641252225277688 -19.672446817293704 -0.452051232819905 -12.284576901881623 3.8098125804813887 -17.614627831427693 74.87084901807401 -4.157747725069691 14.680599913650724 12.39014643446667 -5.318841669152693 72.1485705703479 3.2359745714390664 0.07359428729029124 -0.2748482393191253 4.505211778243622 -0.15551055373809264 -1.5883006994574582 0.010128304717207763 -0.01998673722657156 -56.261388497465504 0.04198601979991029 0.0389628892456193 -56.227819794586274 -38.78550038029638 0.04754493559171149 0.038488050567787147 -0.011500666544679732 -0.0052669502773590535 0.02383085147028046 -0.04412952623234119 -0.047000050848426886 -0.04492048409884017 -36.71971815484921 -0.025380600872818224 0.01761029871223518 0.045337107839149265 -0.032819262336607716 0.005884427523775816 -0.018014823956423603 0.010040190247918163 -0.029925250336285153 -19.752655368836226 0.0362199723105528 0.031344816883955906 0.017645197133361917 0.005902451456845321 0.04310547438826477 0.0014927655110685272 -0.02119769548246199 0.01206324458105534 24.091085479360135 0.04115608489874964 0.007536358572036337 28.8425871347855 0.022534335759345516 -0.000675097015798701 28.85326326217382 -0.006424263840396124 -0.007384011835269768 11.605175639264582 2.5026213587353605 15.083449198825932 -70.56082853048332 8.037298692866253 -19.63089104405939 -6.207175470138409 -7.665066871652803 -63.504468880828405 -5.763938271728648 1.919635102634831 -3.1536599936197334 -0.4291487771159078 0.09784350786184608 -8.11968209074298 -0.040783760859861865 0.01557437727782064 44.559520881310014 0.016770247069523878 -0.04189132262720846 44.597956996911634 12.434624350858297 -0.0062590782782145716 0.032010544975783095 -0.04518919599776726 -0.012261816011276835 -0.02791733639999299 0.04837319102675358 0.04716297565206254 -0.010490923040170432 11.097099326920493 0.03216685373658048 0.047146156156948886 -0.04542202945969563 -0.006394638798496352 0.03355147741061468 0.043360645203320745 -0.0051261065966663275 -0.033093587695822005 4.791315461220403 0.014830133632336193 -0.02677382489827931 0.007502157631657497 0.03490933592689443 -0.007509040545256552 -0.041288791131743524 0.03283268263042815 -0.00256672853817108 -5.597916398718673 -0.03956808151099898 0.014834490413591583 -6.7334682167017 -0.03856680534129762 -0.01291942654247081 -6.707633802168276 -0.036290374726588116 0.0012438814063268878 0.002052403161750405 -0.02717226869250358 0.04844760036433569 8.066720752733534 3.514555027808943 -19.228814260141558 -0.02435974986528576 10.422495620884423 0.031120417548861398 -5.587529517545615 -15.6889368631232 3.2056191613721223 0.015230712121700286 -0.03920346018016124 -0.017476722560210836 0.004314752048279872 4.7345455341044245 0.008854625108482886 12.507456820560646 -8.220856351501986 6.9264022390078654 -0.00951589601309766 46.34295279884722 -0.004172734258429747 -4.3330568843570045 -14.745805814974737 -3.8301686819904233 0.01520951722752277 -0.03556208569431374 0.0051395777257708525 -0.010962979498561162 -10.746378834614086 -0.007079599478576868 
0.047978936241162826 -0.011608098672215142 0.014963752393778063 0.008811729532606364 -0.01262855223809509 0.011422730503526702 5.123454413013101 6.694160891380617 -1.8247551006584601 -1.0010637444224728 4.316713512532738 0.4222584656551355 -0.6733444926984399 -0.4088422105734074 1.1644168722498762 0.3040721134229251 0.0794007635796314 -0.26897861986006566 -0.19335835579634153 14.035188499557307 -2.203783319203443 -0.42274628892336624 -1.8348032530724716 -6.184841711129358 0.45653471181718414 -19.67256447326585 -0.4873481338237327 -12.12352883066996 3.679562430021362 -17.75840663135601 73.92252508092966 -3.3113479124847007 14.47389161580162 12.572979679470345 -6.191529191994732 72.20675035981722 3.950852763113308 0.02758230661481183 -0.5019040288758757 4.48739228086549 -0.14442283265170716 -1.599362994938727 0.03517038939312918 0.03274262489713322 -56.24831680447191 -0.019100539667195625 -0.00873136803309597 -56.24544514776067 -38.736041264078274 -0.043811074677593285 0.018504269643667418 -0.04814194136743449 0.04571799597661937 0.019957637007762763 0.04800259733869609 0.009269390234150481 -0.03490479107586891 -36.67048124460319 -0.010849893695125826 0.0195746392929237 -0.027159868884204807 0.04641174913675258 0.04783506372947907 0.011926839765266218 -0.0322811939049204 -0.0001827134892700122 -19.727304261832867 -0.006306196386862643 -0.0012267002643176483 -0.005011547626743119 -0.01857777190932992 -0.007681588120024378 0.019907540887906427 -0.03483789334239132 0.004562151766272157 24.048659909252585 -0.016250981389516445 -0.04739550779740955 28.888280607609854 0.018388064700396854 0.049860995932043004 28.858225262259328 -0.019702521000262863 0.04307294103517539 11.209309663212759 2.40859603582748 15.209114454929153 -70.22567971394149 7.711107830802295 -18.490455038608175 -7.396301870691136 -8.975173421200356 -63.4019973741609 -6.644010834907616 1.432123347182431 -2.657751116274778 -0.4605415873746661 0.04303863851113457 -8.080645381153108 0.010257445033283644 0.00791145444475746 44.54319427179444 -0.007829015556936283 -0.0003414412390051724 44.58516256263858 12.48544084709023 0.014608075373253378 -0.04594924346811024 -0.008525352765961327 -0.032330188633351936 0.005745205360795604 0.02222435926505138 0.02239703695079367 -0.030157675361665394 11.071313244101853 -0.022067219204188013 -0.019584166499687437 0.03799879142918719 0.03283349200882311 0.003671494657961509 0.02226068590089511 -0.018771844955118317 0.0012345441496677545 4.763509399135604 0.04675559245943365 0.04837998035306634 -0.015096966372399998 -0.017523796826450562 0.024269063202983575 0.03974596744919567 -0.03056844751668622 -0.0008772197081168752 -5.618718075487994 -0.032358355862404584 -0.009205969369010894 -6.690078394432813 -0.03972507034163942 0.003260250475475432 -6.714563571913091 0.00181151064855422 -0.041924637565493215 -0.02059224093834741 0.011598264505586436 -0.04815198268123823 8.082468400623792 3.4724920687453076 -19.257027689916747 0.028008003086404606 10.394769878177504 0.04520633240671622 -5.615004240385323 -15.686829334171863 3.184692005954966 -0.018968689718443253 0.004313463105567737 0.0024432433126456666 -0.0028425872208642108 4.698521554168111 -0.00039851725419046006 12.467285055379483 -8.248559722643687 6.916631242195667 -0.011390157676990602 46.33717969689072 0.026372620168696098 -4.3744790023826345 -14.770735992058851 -3.805702987918162 -0.02239343289281249 -0.025871889159737073 0.024818063830344995 0.030335363215296927 -10.747498698554617 0.007154737999543544 
